<svg xmlns="http://www.w3.org/2000/svg" viewBox="0 0 1200 700">
  <rect width="1200" height="700" fill="#fff8d6"/>
  <rect x="48" y="48" width="1104" height="76" rx="16" fill="#fff"/>
  <circle cx="88" cy="86" r="18" fill="#ffcb00"/>
  <rect x="126" y="72" width="180" height="28" rx="14" fill="#24201f"/>
  <rect x="48" y="160" width="270" height="472" rx="16" fill="#fff"/>
  <rect x="350" y="160" width="802" height="220" rx="16" fill="#fff"/>
  <rect x="350" y="404" width="386" height="228" rx="16" fill="#fff"/>
  <rect x="766" y="404" width="386" height="228" rx="16" fill="#fff0eb"/>
  <g fill="#e7e1de"><rect x="80" y="184" width="180" height="16" rx="8"/><rect x="80" y="232" width="150" height="16" rx="8"/><rect x="80" y="280" width="190" height="16" rx="8"/><rect x="80" y="328" width="140" height="16" rx="8"/><rect x="388" y="204" width="300" height="24" rx="12"/><rect x="388" y="252" width="540" height="16" rx="8"/><rect x="388" y="288" width="430" height="16" rx="8"/><rect x="388" y="446" width="190" height="20" rx="10"/><rect x="804" y="446" width="190" height="20" rx="10"/></g>
  <text x="388" y="350" fill="#ff592b" font-family="Arial, sans-serif" font-size="24" font-weight="700">CAMPUS BRIDGE / SAMPLE SCREEN</text>
</svg>
