<svg width="1035" height="200" viewBox="0 0 1035 200" fill="none" xmlns="http://www.w3.org/2000/svg">
<g clip-path="url(#clip0_1_12)">
<rect width="1034.19" height="200" fill="white"/>
<path d="M369.42 158.9H365.24L290.57 73.4396V158.9H276.4V41.0996H280.59L355.75 127.68V41.0996H369.43V158.91L369.42 158.9Z" fill="#0C0303"/>
<path d="M463.25 111.91C463.25 123.82 462.04 132.96 459.63 139.35C457.21 145.74 452.92 151.07 446.75 155.37C440.58 159.66 433.36 161.81 425.1 161.81C418.56 161.81 412.65 160.76 407.4 158.67C402.14 156.57 397.77 153.62 394.28 149.82C390.8 146.01 388.3 141.77 386.8 137.11C385.3 132.44 384.55 124.05 384.55 111.93V41.0996H398.39V111.91C398.39 119.53 398.6 125.02 399.03 128.4C399.45 131.78 400.69 135.05 402.73 138.22C404.77 141.39 407.69 143.91 411.5 145.78C415.31 147.66 419.63 148.6 424.46 148.6C430.25 148.6 435.27 146.91 439.51 143.53C443.74 140.15 446.48 136.24 447.71 131.78C448.95 127.33 449.56 120.71 449.56 111.91V41.0996H463.24V111.91H463.25Z" fill="#0C0303"/>
<path d="M553.79 54.6098H521.52V158.9H507.52V54.6098H475.05V41.0898H553.79V54.6098Z" fill="#0C0303"/>
<path d="M733.77 158.9H720.09L709.15 78.7498L669.56 158.9H665.37L625.3 78.1098L614.36 158.9H601L617.74 41.0898H621.12L667.47 134.59L713.5 41.0898H716.88L733.78 158.9H733.77Z" fill="#0C0303"/>
<path d="M817.93 54.7796H763.21V88.5796H817.45V102.1H763.21V145.23H817.45V158.91H749.37V41.0996H817.93V54.7796Z" fill="#0C0303"/>
<path d="M957.79 101.29C957.47 120.39 951.92 135.25 941.14 145.87C930.35 156.49 916.17 161.81 898.57 161.81C878.4 161.81 862.31 155.61 850.29 143.22C838.27 130.82 832.26 116.32 832.26 99.69C832.26 83.06 838.27 68.66 850.29 56.48C862.31 44.3 877.81 38.21 896.8 38.21C907.1 38.21 916.68 40.12 925.53 43.92C934.38 47.73 943.04 53.55 951.52 61.38L940.9 71.52C934.36 65.19 927.27 60.34 919.66 56.96C912.05 53.58 904.21 51.89 896.16 51.89C888.11 51.89 880.12 54.04 872.18 58.33C864.24 62.62 858.02 68.41 853.51 75.71C849 83.01 846.75 90.89 846.75 99.36C846.75 112.56 851.71 124.07 861.64 133.88C871.56 143.7 883.98 148.61 898.9 148.61C909.95 148.61 919.5 145.58 927.55 139.52C935.6 133.46 940.53 125.17 942.35 114.66H905.66V101.3H957.8L957.79 101.29Z" fill="#0C0303"/>
<path fill-rule="evenodd" clip-rule="evenodd" d="M23.78 164.71C8.94 147.25 0 124.67 0 100C0 44.81 44.81 0 100 0C122.31 0 142.93 7.32 159.56 19.7C153.27 19.98 146.94 22.11 141.46 26.14C129.21 35.11 116.87 48.08 113.77 73.67C112.22 86.43 116.39 98.19 120.37 106.11C117.91 105.65 115.43 105.73 113.08 106.27C112.31 106.45 111.54 106.68 110.79 106.97C97.8 110.89 93.4 104.13 91.91 98.98C92.06 97.12 92.18 94.98 92.18 93.55C92.18 77.18 78.89 63.88 62.53 63.88C46.17 63.88 32.88 77.18 32.88 93.55C32.88 99.56 34.69 105.17 37.76 109.84C38.49 110.93 39.28 111.99 40.14 112.98C42.82 116.87 46.74 123.84 46.31 130.83C45.67 141.31 39.46 151.92 36.03 154.77C32.72 157.52 24.37 164.26 23.79 164.73L23.78 164.71ZM191.09 58.7C196.8 71.29 200 85.28 200 100C200 155.19 155.18 200 100 200C72.23 200 47.08 188.65 28.96 170.36C36.12 167.77 53.97 159.17 68.5 144.66C79.46 133.72 84.24 127.45 87.28 119.49V119.52C95.2 141.63 109.31 142.13 110.32 142.34C120.12 144.29 130.59 139.56 134.07 130.21C135.93 125.22 135.45 119.94 133.18 115.56C133.43 115.01 133.56 114.42 133.56 113.83C133.56 113.83 123.23 82.61 159.17 82.1C160.56 82.17 161.95 82.14 163.33 82.04C169.23 81.55 175.06 79.41 180.08 75.48C185.7 71.09 189.42 65.14 191.09 58.7Z" fill="black"/>
</g>
<defs>
<clipPath id="clip0_1_12">
<rect width="1034.19" height="200" fill="white"/>
</clipPath>
</defs>
</svg>
