<svg width="1035" height="200" viewBox="0 0 1035 200" fill="none" xmlns="http://www.w3.org/2000/svg">
<g clip-path="url(#clip0_1_45)">
<rect width="1034.19" height="200" fill="white"/>
<path d="M369.42 158.9H365.24L290.57 73.4396V158.9H276.4V41.0996H280.59L355.75 127.68V41.0996H369.43V158.91L369.42 158.9Z" fill="#0C0303"/>
<path d="M463.25 111.91C463.25 123.82 462.04 132.96 459.63 139.35C457.21 145.74 452.92 151.07 446.75 155.37C440.58 159.66 433.36 161.81 425.1 161.81C418.56 161.81 412.65 160.76 407.4 158.67C402.14 156.57 397.77 153.62 394.28 149.82C390.8 146.01 388.3 141.77 386.8 137.11C385.3 132.44 384.55 124.05 384.55 111.93V41.0996H398.39V111.91C398.39 119.53 398.6 125.02 399.03 128.4C399.45 131.78 400.69 135.05 402.73 138.22C404.77 141.39 407.69 143.91 411.5 145.78C415.31 147.66 419.63 148.6 424.46 148.6C430.25 148.6 435.27 146.91 439.51 143.53C443.74 140.15 446.48 136.24 447.71 131.78C448.95 127.33 449.56 120.71 449.56 111.91V41.0996H463.24V111.91H463.25Z" fill="#0C0303"/>
<path d="M553.79 54.6098H521.52V158.9H507.52V54.6098H475.05V41.0898H553.79V54.6098Z" fill="#0C0303"/>
<path d="M733.77 158.9H720.09L709.15 78.7498L669.56 158.9H665.37L625.3 78.1098L614.36 158.9H601L617.74 41.0898H621.12L667.47 134.59L713.5 41.0898H716.88L733.78 158.9H733.77Z" fill="#0C0303"/>
<path d="M817.93 54.7796H763.21V88.5796H817.45V102.1H763.21V145.23H817.45V158.91H749.37V41.0996H817.93V54.7796Z" fill="#0C0303"/>
<path d="M957.79 101.29C957.47 120.39 951.92 135.25 941.14 145.87C930.35 156.49 916.17 161.81 898.57 161.81C878.4 161.81 862.31 155.61 850.29 143.22C838.27 130.82 832.26 116.32 832.26 99.69C832.26 83.06 838.27 68.66 850.29 56.48C862.31 44.3 877.81 38.21 896.8 38.21C907.1 38.21 916.68 40.12 925.53 43.92C934.38 47.73 943.04 53.55 951.52 61.38L940.9 71.52C934.36 65.19 927.27 60.34 919.66 56.96C912.04 53.58 904.21 51.89 896.16 51.89C888.11 51.89 880.12 54.04 872.18 58.33C864.24 62.62 858.02 68.41 853.51 75.71C849 83.01 846.75 90.89 846.75 99.36C846.75 112.56 851.71 124.07 861.64 133.88C871.56 143.7 883.98 148.61 898.9 148.61C909.95 148.61 919.5 145.58 927.55 139.52C935.6 133.46 940.53 125.17 942.35 114.66H905.66V101.3H957.8L957.79 101.29Z" fill="#0C0303"/>
<path fill-rule="evenodd" clip-rule="evenodd" d="M23.28 164.71C8.44 147.25 -0.5 124.67 -0.5 100C-0.5 44.81 44.31 0 99.5 0C121.81 0 142.43 7.32 159.06 19.7C152.77 19.98 146.44 22.11 140.96 26.14C128.71 35.11 116.37 48.08 113.27 73.67C111.72 86.43 115.89 98.19 119.87 106.11C117.41 105.65 114.93 105.73 112.58 106.27C111.81 106.45 111.04 106.68 110.29 106.97C97.3 110.89 92.9 104.13 91.41 98.98C91.56 97.12 91.68 94.98 91.68 93.55C91.68 77.18 78.39 63.88 62.03 63.88C45.67 63.88 32.38 77.18 32.38 93.55C32.38 99.56 34.19 105.17 37.26 109.84C37.99 110.93 38.78 111.99 39.64 112.98C42.32 116.87 46.24 123.84 45.81 130.83C45.17 141.31 38.96 151.92 35.53 154.77C32.22 157.52 23.87 164.26 23.29 164.73L23.28 164.71ZM190.59 58.7C196.3 71.29 199.5 85.28 199.5 100C199.5 155.19 154.68 200 99.5 200C71.73 200 46.58 188.65 28.46 170.36C35.62 167.77 53.47 159.17 68 144.66C78.96 133.72 83.74 127.45 86.78 119.49V119.52C94.7 141.63 108.81 142.13 109.82 142.34C119.62 144.29 130.09 139.56 133.57 130.21C135.43 125.22 134.95 119.94 132.68 115.56C132.93 115.01 133.06 114.42 133.06 113.83C133.06 113.83 122.73 82.61 158.67 82.1C160.06 82.17 161.45 82.14 162.83 82.04C168.73 81.55 174.56 79.41 179.58 75.48C185.2 71.09 188.92 65.14 190.59 58.7Z" fill="url(#paint0_radial_1_45)"/>
</g>
<defs>
<radialGradient id="paint0_radial_1_45" cx="0" cy="0" r="1" gradientUnits="userSpaceOnUse" gradientTransform="translate(129 11) rotate(107.337) scale(197.995)">
<stop offset="0.291952" stop-color="#FFCB00"/>
<stop offset="0.604871" stop-color="#F0932E"/>
<stop offset="0.902126" stop-color="#FF592B"/>
</radialGradient>
<clipPath id="clip0_1_45">
<rect width="1034.19" height="200" fill="white"/>
</clipPath>
</defs>
</svg>
